<svg width="918" height="77" viewBox="0 0 918 77" fill="none" xmlns="http://www.w3.org/2000/svg">
<g filter="url(#filter0_f_8_13)">
<path d="M147.56 14.5C123.57 13.7895 86.5604 30 86.5604 30C86.5604 30 8.8621 58.0919 6.50088 59C-6.5 64 41.5 74 86.5604 71.5H810.56C810.56 71.5 919.828 76.6954 913 64C909.335 57.186 808.723 24.4265 801.56 21.5C789.416 16.5377 782.125 28.8021 769.06 30C754.414 31.343 744.203 34.0164 731.56 26.5C722.765 21.2711 714.06 12.5 714.06 12.5C714.06 12.5 676.156 27.7956 650.06 26.5C639.542 25.9778 631.606 28.2954 623.56 21.5C617.62 16.4824 612.56 12.5 612.56 12.5C612.56 12.5 549.677 47.0885 528.06 20C523.267 13.9931 519.06 7 519.06 7C519.06 7 505.727 10.3333 491.06 12.5C476.394 14.6667 462.229 24.2821 445.06 18.5C433.401 14.5733 429.394 10 421.56 4C421.56 4 397.543 9.65017 382.56 12.5C367.77 15.3132 359.065 15.7349 344.06 14.5C329.938 13.3377 308.56 7 308.56 7C308.56 7 270.681 23.7754 245.06 23.5C225.068 23.2851 214.986 14.146 195.06 12.5C176.557 10.9714 166.119 15.0496 147.56 14.5Z" fill="url(#paint0_linear_8_13)"/>
</g>
<g style="mix-blend-mode:soft-light">
<g filter="url(#filter1_f_8_13)">
<path d="M134.534 28.4053C126.376 26.4579 121 25 121 25C121 25 126.302 26.3797 134.534 28.4053C149.078 31.8773 172.467 36.9052 190 38C214.388 39.5228 228.338 38.651 252.5 35C269.923 32.3671 281.188 33.7198 296.5 25C301.254 22.2928 308 17 308 17C308 17 306.468 28.8127 302.5 35C293.63 48.8324 279.204 46.7704 263 49.5C238.781 53.5797 224.757 46.3487 200.5 42.5C179.526 39.1722 151.098 32.4812 134.534 28.4053Z" fill="url(#paint1_linear_8_13)" fill-opacity="0.8"/>
</g>
<g filter="url(#filter2_f_8_13)">
<path d="M602.5 30C587.188 38.7198 558.5 40 558.5 40C558.5 40 539.029 39.9045 528 35C518.437 30.7472 506.5 19 506.5 19C506.5 19 484.012 25.8284 468 27L427 30L506.5 47.5C506.5 47.5 544.781 58.5797 569 54.5C585.204 51.7704 599.63 53.8324 608.5 40C612.468 33.8127 614 22 614 22C614 22 607.254 27.2928 602.5 30Z" fill="url(#paint2_linear_8_13)" fill-opacity="0.8"/>
</g>
<g filter="url(#filter3_f_8_13)">
<path d="M370.845 34.7051C361.796 39.1861 354.5 43 354.5 43C354.5 43 348.963 45.1889 349.506 38.9494C350.656 25.7599 363.986 26.1119 375.277 22.3162C383.692 19.4872 389.067 20.3737 397.905 19.1364C407.577 17.7821 422.676 15.6823 422.676 15.6823C422.676 15.6823 410.343 30.6375 399.482 34.4446C389.067 38.0954 380.749 29.8013 370.845 34.7051Z" fill="url(#paint3_linear_8_13)" fill-opacity="0.8"/>
</g>
<g filter="url(#filter4_f_8_13)">
<path d="M667.46 46.8078C659.107 52.4818 652.4 57.2557 652.4 57.2557C652.4 57.2557 647.213 60.1798 646.9 53.9244C646.239 40.7014 659.493 39.231 670.16 33.9299C678.11 29.979 683.556 30.1238 692.142 27.6921C701.539 25.0304 716.21 20.8897 716.21 20.8897C716.21 20.8897 706.033 37.3881 695.794 42.6417C685.974 47.6796 676.602 40.5983 667.46 46.8078Z" fill="url(#paint4_linear_8_13)" fill-opacity="0.8"/>
</g>
<g filter="url(#filter5_f_8_13)">
<path d="M333.82 52.2092C313.471 49.4885 281 52.2092 281 52.2092C281 52.2092 312.537 62.1632 333.82 63.8573C346.283 64.8493 353.841 61.1036 365.889 63.8573C373.497 65.596 376.247 70.3875 384.125 70.9474C393.802 71.6353 397.859 65.3705 407.391 63.8573C418.473 62.0978 425.02 63.8573 436.316 63.8573H470.271H508C508 63.8573 480.844 59.592 463.355 57.2736C446.701 55.066 437.266 50.0855 420.596 52.2092C412.464 53.2451 408.54 55.9485 400.474 57.2736C384.593 59.8822 374.995 59.2361 358.972 57.2736C348.963 56.0476 343.808 53.5446 333.82 52.2092Z" fill="url(#paint5_linear_8_13)"/>
</g>
<g filter="url(#filter6_f_8_13)">
<path d="M143.015 29.5744C131.017 28.3955 112.027 30.7201 112.027 30.7201C112.027 30.7201 130.748 35.9638 143.272 36.511C150.605 36.8314 154.957 34.4368 162.086 35.8154C166.587 36.6858 168.307 39.4795 172.94 39.6421C178.633 39.8418 180.876 36.023 186.434 34.9151C192.897 33.6269 196.777 34.5327 203.404 34.2877L223.325 33.5511L245.459 32.7328C245.459 32.7328 229.434 30.7817 219.122 29.7805C209.303 28.8271 203.658 26.0657 193.925 27.6921C189.177 28.4853 186.934 30.1804 182.231 31.1445C172.972 33.0424 167.327 32.8658 157.883 32.0447C151.983 31.5317 148.904 30.153 143.015 29.5744Z" fill="url(#paint6_linear_8_13)"/>
</g>
<g filter="url(#filter7_f_8_13)">
<path d="M620.82 47.2092C600.471 44.4885 568 47.2092 568 47.2092C568 47.2092 599.537 57.1632 620.82 58.8573C633.283 59.8493 640.841 56.1036 652.889 58.8573C660.497 60.596 663.248 65.3875 671.125 65.9474C680.802 66.6353 684.859 60.3705 694.391 58.8573C705.473 57.0978 712.02 58.8573 723.316 58.8573H757.272H795C795 58.8573 767.844 54.592 750.355 52.2736C733.701 50.066 724.266 45.0855 707.596 47.2092C699.464 48.2451 695.541 50.9485 687.474 52.2736C671.593 54.8822 661.995 54.2361 645.972 52.2736C635.963 51.0476 630.808 48.5446 620.82 47.2092Z" fill="url(#paint7_linear_8_13)"/>
</g>
</g>
<defs>
<filter id="filter0_f_8_13" x="0.338074" y="0" width="916.969" height="76.5525" filterUnits="userSpaceOnUse" color-interpolation-filters="sRGB">
<feFlood flood-opacity="0" result="BackgroundImageFix"/>
<feBlend mode="normal" in="SourceGraphic" in2="BackgroundImageFix" result="shape"/>
<feGaussianBlur stdDeviation="2" result="effect1_foregroundBlur_8_13"/>
</filter>
<filter id="filter1_f_8_13" x="117" y="13" width="195" height="41.7099" filterUnits="userSpaceOnUse" color-interpolation-filters="sRGB">
<feFlood flood-opacity="0" result="BackgroundImageFix"/>
<feBlend mode="normal" in="SourceGraphic" in2="BackgroundImageFix" result="shape"/>
<feGaussianBlur stdDeviation="2" result="effect1_foregroundBlur_8_13"/>
</filter>
<filter id="filter2_f_8_13" x="423" y="15" width="195" height="44.4022" filterUnits="userSpaceOnUse" color-interpolation-filters="sRGB">
<feFlood flood-opacity="0" result="BackgroundImageFix"/>
<feBlend mode="normal" in="SourceGraphic" in2="BackgroundImageFix" result="shape"/>
<feGaussianBlur stdDeviation="2" result="effect1_foregroundBlur_8_13"/>
</filter>
<filter id="filter3_f_8_13" x="345.469" y="11.6823" width="81.207" height="35.6899" filterUnits="userSpaceOnUse" color-interpolation-filters="sRGB">
<feFlood flood-opacity="0" result="BackgroundImageFix"/>
<feBlend mode="normal" in="SourceGraphic" in2="BackgroundImageFix" result="shape"/>
<feGaussianBlur stdDeviation="2" result="effect1_foregroundBlur_8_13"/>
</filter>
<filter id="filter4_f_8_13" x="642.876" y="16.8897" width="77.3334" height="45.0486" filterUnits="userSpaceOnUse" color-interpolation-filters="sRGB">
<feFlood flood-opacity="0" result="BackgroundImageFix"/>
<feBlend mode="normal" in="SourceGraphic" in2="BackgroundImageFix" result="shape"/>
<feGaussianBlur stdDeviation="2" result="effect1_foregroundBlur_8_13"/>
</filter>
<filter id="filter5_f_8_13" x="277" y="47" width="235" height="28" filterUnits="userSpaceOnUse" color-interpolation-filters="sRGB">
<feFlood flood-opacity="0" result="BackgroundImageFix"/>
<feBlend mode="normal" in="SourceGraphic" in2="BackgroundImageFix" result="shape"/>
<feGaussianBlur stdDeviation="2" result="effect1_foregroundBlur_8_13"/>
</filter>
<filter id="filter6_f_8_13" x="108.027" y="23.1898" width="141.433" height="20.4598" filterUnits="userSpaceOnUse" color-interpolation-filters="sRGB">
<feFlood flood-opacity="0" result="BackgroundImageFix"/>
<feBlend mode="normal" in="SourceGraphic" in2="BackgroundImageFix" result="shape"/>
<feGaussianBlur stdDeviation="2" result="effect1_foregroundBlur_8_13"/>
</filter>
<filter id="filter7_f_8_13" x="564" y="42" width="235" height="28" filterUnits="userSpaceOnUse" color-interpolation-filters="sRGB">
<feFlood flood-opacity="0" result="BackgroundImageFix"/>
<feBlend mode="normal" in="SourceGraphic" in2="BackgroundImageFix" result="shape"/>
<feGaussianBlur stdDeviation="2" result="effect1_foregroundBlur_8_13"/>
</filter>
<linearGradient id="paint0_linear_8_13" x1="480.56" y1="-70" x2="480.06" y2="172" gradientUnits="userSpaceOnUse">
<stop stop-color="#0070AE"/>
<stop offset="1" stop-color="#535D6C" stop-opacity="0.41"/>
</linearGradient>
<linearGradient id="paint1_linear_8_13" x1="318.5" y1="18.5" x2="137" y2="29" gradientUnits="userSpaceOnUse">
<stop stop-color="#D9D9D9" stop-opacity="0.3"/>
<stop offset="1" stop-color="#EFEFEF" stop-opacity="0.13"/>
</linearGradient>
<linearGradient id="paint2_linear_8_13" x1="624.5" y1="23.5" x2="443" y2="34" gradientUnits="userSpaceOnUse">
<stop stop-color="#D9D9D9" stop-opacity="0.3"/>
<stop offset="1" stop-color="#EFEFEF" stop-opacity="0.13"/>
</linearGradient>
<linearGradient id="paint3_linear_8_13" x1="433.46" y1="13.2617" x2="340.877" y2="47.2415" gradientUnits="userSpaceOnUse">
<stop stop-color="#D9D9D9" stop-opacity="0.28"/>
<stop offset="1" stop-color="#DADADA" stop-opacity="0.09"/>
</linearGradient>
<linearGradient id="paint4_linear_8_13" x1="726.563" y1="17.0201" x2="639.483" y2="63.3165" gradientUnits="userSpaceOnUse">
<stop stop-color="#D9D9D9" stop-opacity="0.28"/>
<stop offset="1" stop-color="#DADADA" stop-opacity="0.09"/>
</linearGradient>
<linearGradient id="paint5_linear_8_13" x1="281" y1="61" x2="508" y2="61" gradientUnits="userSpaceOnUse">
<stop stop-color="#D9D9D9" stop-opacity="0.15"/>
<stop offset="1" stop-color="#F0F0F0" stop-opacity="0.09"/>
</linearGradient>
<linearGradient id="paint6_linear_8_13" x1="112.22" y1="35.9552" x2="245.397" y2="31.0312" gradientUnits="userSpaceOnUse">
<stop stop-color="#D9D9D9" stop-opacity="0.15"/>
<stop offset="1" stop-color="#F0F0F0" stop-opacity="0.09"/>
</linearGradient>
<linearGradient id="paint7_linear_8_13" x1="568" y1="56" x2="795" y2="56" gradientUnits="userSpaceOnUse">
<stop stop-color="#D9D9D9" stop-opacity="0.15"/>
<stop offset="1" stop-color="#F0F0F0" stop-opacity="0.09"/>
</linearGradient>
</defs>
</svg>
